<svg width="36" height="32" viewBox="0 0 36 32" fill="none" xmlns="http://www.w3.org/2000/svg">
<rect width="36" height="31.7647" rx="4" fill="url(#paint0_linear_472_762)"/>
<path d="M22.4054 7.44253C22.74 6.85874 23.3028 6.5 23.8932 6.5C24.7992 6.5 25.6303 7.32156 25.6303 8.53756C25.6303 9.33527 25.225 9.99224 24.6628 10.313C24.2578 9.08867 23.4531 8.05799 22.4054 7.44253Z" stroke="#CBC301"/>
<path d="M24.351 14.6153C24.58 14.1543 24.7464 13.6515 24.8395 13.1247C25.2797 13.0037 25.6841 12.8018 26.0406 12.5305C26.4378 12.7208 26.7882 12.9174 27.0518 13.1347C27.3727 13.3993 27.5 13.6388 27.5 13.8799V14.2806C27.5 14.4719 27.3566 14.6153 27.1653 14.6153H24.351Z" stroke="#CBC301"/>
<path d="M19.9939 19.2225C20.2298 18.666 20.3956 18.0637 20.4769 17.4238C21.2246 17.3336 21.9132 17.026 22.4973 16.5729C22.985 16.8124 23.4257 17.0586 23.7626 17.3367C24.1571 17.6625 24.3486 17.9809 24.3614 18.3285V18.7208C24.3614 19.0015 24.1287 19.2225 23.8598 19.2225H19.9939Z" stroke="#CBC301"/>
<path d="M14.5776 23.0276C15.9272 23.0276 17.2143 22.5318 18.2113 21.655C18.8445 21.9608 19.4084 22.2925 19.8275 22.6697C20.3052 23.0996 20.5551 23.5507 20.5551 24.0635V24.6645C20.5551 25.0979 20.203 25.4667 19.7529 25.4667H9.30217C8.86876 25.4667 8.5 25.1146 8.5 24.6645V24.0301C8.5 23.5441 8.75598 23.0932 9.25855 22.6469C9.69363 22.2605 10.2727 21.9153 10.9093 21.5953C11.9039 22.5007 13.193 23.0276 14.5776 23.0276Z" stroke="#CBC301"/>
<path d="M17.6168 16.518C17.6168 18.465 16.1963 19.9579 14.5442 19.9579C12.8922 19.9579 11.4716 18.465 11.4716 16.518C11.4716 14.5711 12.8922 13.0781 14.5442 13.0781C16.1963 13.0781 17.6168 14.5711 17.6168 16.518Z" stroke="#CBC301"/>
<path d="M22.0911 12.0665L22.091 12.0665V12.0769C22.091 13.3588 21.2438 14.3512 20.2308 14.5224C19.8225 13.1436 19.0196 11.9232 17.9318 11.1066C18.2662 10.2121 19.046 9.63867 19.9199 9.63867C21.106 9.63867 22.1195 10.7064 22.0911 12.0665Z" stroke="#CBC301"/>
<defs>
<linearGradient id="paint0_linear_472_762" x1="18" y1="0" x2="18" y2="36.8823" gradientUnits="userSpaceOnUse">
<stop stop-color="#FCFACF"/>
<stop offset="1" stop-color="#FCFACF" stop-opacity="0"/>
</linearGradient>
</defs>
</svg>
