<svg width="21" height="20" viewBox="0 0 21 20" fill="none" xmlns="http://www.w3.org/2000/svg">
<path d="M18.8891 5.37872C18.837 5.28033 18.7482 5.20652 18.6419 5.17339C18.5357 5.14027 18.4206 5.15052 18.3219 5.20192C18.2231 5.25331 18.1487 5.34168 18.1149 5.44772C18.0811 5.55377 18.0906 5.66889 18.1413 5.76796C19.046 7.49479 19.3738 9.46597 19.0767 11.3926C18.7796 13.3193 17.8733 15.1002 16.4904 16.4743C12.9195 20.0448 7.10863 20.0459 3.53624 16.4739C3.47729 16.415 3.40217 16.3748 3.3204 16.3586C3.23863 16.3423 3.15388 16.3507 3.07687 16.3827C2.99987 16.4146 2.93406 16.4686 2.88778 16.538C2.8415 16.6073 2.81683 16.6888 2.81689 16.7722V19.1952C2.81689 19.307 2.86129 19.4142 2.94033 19.4932C3.01936 19.5722 3.12655 19.6166 3.23832 19.6166C3.35009 19.6166 3.45728 19.5722 3.53632 19.4932C3.61535 19.4142 3.65975 19.307 3.65975 19.1952V17.724C5.44093 19.1879 7.67306 19.9917 9.97863 19.9995C12.2842 20.0073 14.5217 19.2186 16.3128 17.7667C18.1038 16.3149 19.3384 14.289 19.8079 12.0317C20.2773 9.77443 19.9528 7.42428 18.8891 5.37872Z" fill="#009BDB"/>
<path d="M3.53674 3.52123C7.10876 -0.0504155 12.9197 -0.0500406 16.4909 3.52085C16.5498 3.57988 16.6249 3.62011 16.7067 3.63642C16.7884 3.65274 16.8732 3.64442 16.9502 3.61252C17.0273 3.58061 17.0931 3.52656 17.1394 3.4572C17.1857 3.38785 17.2104 3.30632 17.2103 3.22294V0.799938C17.2103 0.688168 17.1659 0.580977 17.0868 0.501944C17.0078 0.422911 16.9006 0.378511 16.7888 0.378511C16.6771 0.378511 16.5699 0.422911 16.4908 0.501944C16.4118 0.580977 16.3674 0.688168 16.3674 0.799938V2.2712C12.4421 -0.961011 6.60948 -0.743559 2.9409 2.92502C1.4307 4.42545 0.44083 6.37019 0.116389 8.47418C-0.208052 10.5782 0.149995 12.7308 1.13805 14.6164C1.1901 14.7148 1.27895 14.7886 1.38521 14.8218C1.49148 14.8549 1.60654 14.8446 1.70527 14.7932C1.80401 14.7418 1.87841 14.6535 1.91223 14.5474C1.94605 14.4414 1.93656 14.3263 1.88582 14.2272C0.981128 12.5004 0.65331 10.5293 0.950407 8.60267C1.2475 6.67605 2.15389 4.89524 3.53674 3.52123Z" fill="#009BDB"/>
<path d="M4.49438 9.93686V14.5972C4.49528 14.9019 4.61671 15.1938 4.83213 15.4092C5.04756 15.6246 5.33948 15.7461 5.64414 15.747H14.3822C14.6869 15.7461 14.9788 15.6247 15.1942 15.4092C15.4097 15.1938 15.5311 14.9019 15.5319 14.5972V9.93686C15.5311 9.6322 15.4097 9.34026 15.1942 9.12483C14.9788 8.9094 14.6868 8.78798 14.3822 8.78711H5.64414C5.33948 8.78801 5.04756 8.90944 4.83214 9.12486C4.61671 9.34029 4.49529 9.63221 4.49438 9.93686ZM13.0792 11.3666C13.2573 11.3666 13.4314 11.4194 13.5795 11.5183C13.7275 11.6173 13.843 11.7579 13.9111 11.9225C13.9793 12.087 13.9971 12.2681 13.9624 12.4428C13.9276 12.6174 13.8418 12.7779 13.7159 12.9038C13.59 13.0298 13.4295 13.1155 13.2548 13.1503C13.0802 13.185 12.8991 13.1672 12.7346 13.099C12.57 13.0309 12.4294 12.9154 12.3304 12.7674C12.2315 12.6193 12.1787 12.4452 12.1787 12.2671C12.1789 12.0283 12.2739 11.7994 12.4427 11.6306C12.6115 11.4618 12.8404 11.3668 13.0792 11.3666ZM10.0132 11.3666C10.1913 11.3666 10.3654 11.4194 10.5134 11.5183C10.6615 11.6173 10.777 11.7579 10.8451 11.9225C10.9133 12.087 10.9311 12.2681 10.8963 12.4428C10.8616 12.6174 10.7758 12.7779 10.6499 12.9038C10.524 13.0298 10.3635 13.1155 10.1888 13.1503C10.0142 13.185 9.8331 13.1672 9.66856 13.099C9.50401 13.0309 9.36338 12.9154 9.26443 12.7674C9.16548 12.6193 9.11267 12.4452 9.11267 12.2671C9.1129 12.0283 9.20785 11.7994 9.37667 11.6306C9.5455 11.4618 9.77441 11.3668 10.0132 11.3666ZM6.94715 11.3666C7.12525 11.3666 7.29935 11.4194 7.44744 11.5183C7.59552 11.6173 7.71094 11.7579 7.7791 11.9225C7.84725 12.087 7.86509 12.2681 7.83034 12.4428C7.7956 12.6174 7.70983 12.7779 7.5839 12.9038C7.45796 13.0298 7.29751 13.1155 7.12283 13.1503C6.94815 13.185 6.76709 13.1672 6.60255 13.099C6.438 13.0309 6.29737 12.9154 6.19842 12.7674C6.09947 12.6193 6.04666 12.4452 6.04666 12.2671C6.04689 12.0283 6.14184 11.7994 6.31066 11.6306C6.47949 11.4618 6.7084 11.3668 6.94715 11.3666Z" fill="#009BDB"/>
<path d="M13.7457 7.94341V6.41031C13.7457 5.42037 13.3524 4.47098 12.6524 3.77098C11.9524 3.07099 11.003 2.67773 10.0131 2.67773C9.02316 2.67773 8.07376 3.07099 7.37377 3.77098C6.67377 4.47098 6.28052 5.42037 6.28052 6.41031V7.94341H7.12338V6.41031C7.12338 5.64391 7.42784 4.9089 7.96977 4.36697C8.5117 3.82504 9.24671 3.52058 10.0131 3.52058C10.7795 3.52058 11.5145 3.82504 12.0565 4.36697C12.5984 4.9089 12.9028 5.64391 12.9028 6.41031V7.94341H13.7457Z" fill="#009BDB"/>
</svg>
