<svg width="15" height="18" viewBox="0 0 15 18" fill="none" xmlns="http://www.w3.org/2000/svg">
<path d="M1.01733 16C1.01733 17.1 1.91733 18 3.01733 18H11.0173C12.1173 18 13.0173 17.1 13.0173 16V6C13.0173 4.9 12.1173 4 11.0173 4H3.01733C1.91733 4 1.01733 4.9 1.01733 6V16ZM4.01733 6H10.0173C10.5673 6 11.0173 6.45 11.0173 7V15C11.0173 15.55 10.5673 16 10.0173 16H4.01733C3.46733 16 3.01733 15.55 3.01733 15V7C3.01733 6.45 3.46733 6 4.01733 6ZM10.5173 1L9.80733 0.29C9.62733 0.11 9.36733 0 9.10733 0H4.92733C4.66733 0 4.40733 0.11 4.22733 0.29L3.51733 1H1.01733C0.467334 1 0.017334 1.45 0.017334 2C0.017334 2.55 0.467334 3 1.01733 3H13.0173C13.5673 3 14.0173 2.55 14.0173 2C14.0173 1.45 13.5673 1 13.0173 1H10.5173Z" fill="#009BDB"/>
</svg>
