<svg width="27" height="23" viewBox="0 0 27 23" fill="none" xmlns="http://www.w3.org/2000/svg">
<path d="M1.95135 0.333344V3.59385H26.8696V19.6567H11.6272V17.2746H5.24609L5.07935 19.6879H2.38906C1.33349 20.3683 2.89972 22.3201 0.666504 22.2963V0.529867L1.95135 0.333344ZM25.5907 18.3852V5.08415H2.03323V7.56451H5.04362V13.9992H2.04217V18.348H3.80641C3.98656 15.9659 4.07886 15.8855 6.42672 15.8825C7.65549 15.8825 8.88426 15.8825 10.113 15.8825C12.644 15.8825 12.644 15.8825 13.0296 18.3882L25.5907 18.3852ZM1.95135 8.89104V12.5639H3.87639V8.89104H1.95135Z" fill="#71B626"/>
<path d="M24.5501 13.8249L21.8166 16.5048C21.6142 16.2711 21.4176 16.0299 21.2062 15.8036C21.0216 15.607 20.7685 15.2408 20.6345 15.278C20.3665 15.351 20.1551 15.6413 19.9288 15.8527C19.7025 16.0641 19.4896 16.2874 19.2708 16.5048C19.0609 16.277 18.8524 16.0492 18.641 15.8229C18.4549 15.6264 18.2197 15.2453 18.0872 15.278C17.8162 15.345 17.5899 15.6234 17.3636 15.8333C17.1373 16.0433 16.9363 16.28 16.7234 16.5048C16.5075 16.2859 16.2961 16.0582 16.0743 15.8482C15.6276 15.4239 15.1884 15.0056 14.7448 14.5857C14.5483 14.3996 14.1656 14.1688 14.1969 14.0363C14.2624 13.7654 14.5363 13.5346 14.7478 13.3098C14.9592 13.085 15.1944 12.8855 15.4237 12.6741C15.2063 12.4567 14.977 12.2423 14.7701 12.0175C14.5631 11.7927 14.2698 11.5709 14.1969 11.3103C14.1612 11.1763 14.5274 10.9262 14.7254 10.7401C14.9502 10.5287 15.1899 10.3307 15.4237 10.1267C15.1587 9.89744 14.8758 9.68007 14.6361 9.43442C14.4485 9.24087 14.1895 8.98777 14.1895 8.77636C14.1895 8.56495 14.5066 8.36545 14.6956 8.18084C15.1512 7.71831 15.6113 7.25926 16.0758 6.80368C16.2678 6.6146 16.5224 6.25729 16.6624 6.296C16.9289 6.37491 17.1284 6.67565 17.3547 6.89152L18.0276 7.52874C18.2316 7.29648 18.4311 7.05827 18.6425 6.83197C18.8286 6.63545 19.0772 6.26622 19.2097 6.30195C19.4792 6.37342 19.6936 6.66225 19.9199 6.87217C20.1462 7.08209 20.3561 7.30988 20.575 7.52874C20.7864 7.30244 20.9859 7.06571 21.2122 6.8543C21.4385 6.64289 21.6663 6.36746 21.9372 6.30195C22.0683 6.2692 22.2946 6.65927 22.4896 6.84537C22.9586 7.29201 23.4424 7.73121 23.9025 8.1853C24.093 8.37438 24.3729 8.60961 24.3714 8.82103C24.37 9.03244 24.0737 9.25576 23.8935 9.45079C23.6538 9.70389 23.3933 9.93466 23.1491 10.1744C23.3963 10.3664 23.6583 10.5406 23.8861 10.7535C24.0826 10.9366 24.3729 11.1585 24.3774 11.3699C24.3819 11.5813 24.1064 11.8165 23.9188 12.0145C23.6791 12.2661 23.4067 12.488 23.1491 12.7217C23.3873 12.9197 23.6241 13.1207 23.8667 13.3172C24.0722 13.478 24.2881 13.6314 24.5501 13.8249ZM16.7964 13.8592H21.7452V8.94609H16.7964V13.8592Z" fill="#71B626"/>
<path className="testing" d="M11.4753 8.81956C10.6044 9.40615 10.0952 10.0106 9.60092 9.9987C9.18852 9.98827 8.40987 9.15603 8.47836 8.86571C8.60788 8.35802 9.22276 7.74017 9.72598 7.63595C10.1041 7.55704 10.6327 8.2151 11.4753 8.81956Z" fill="#71B626"/>
</svg>
