<svg width="20" height="20" viewBox="0 0 20 20" fill="none" xmlns="http://www.w3.org/2000/svg">
<path id="Vector" d="M17.3924 11.0833C17.4764 10.6667 17.4764 10.3333 17.4764 10C17.4764 9.66667 17.4764 9.33333 17.3924 8.91667L19.4926 7.41667C19.7446 7.25 19.7446 7 19.6606 6.75L17.5605 3.16667C17.3924 2.91667 17.1404 2.83333 16.8884 3L14.4523 4.08333C13.8642 3.66667 13.2762 3.33333 12.6042 3L12.3521 0.416667C12.4361 0.166667 12.2681 -3.90625e-08 12.0161 0H7.89987C7.64786 0 7.39585 0.166667 7.39585 0.416667L7.14383 3C6.47179 3.25 5.88376 3.58333 5.29572 4.08333L2.85957 3C2.60756 2.91667 2.35554 3 2.18753 3.16667L0.0874088 6.75C-0.0806012 7 0.00340363 7.25 0.255419 7.41667L2.35554 8.91667V10C2.35554 10.3333 2.35555 10.6667 2.43955 11.0833L0.339424 12.5833C0.0874086 12.75 0.0874087 13 0.171414 13.25L2.27154 16.8333C2.43955 17.0833 2.69157 17.1667 2.94358 17L5.37972 15.9167C5.96776 16.3333 6.5558 16.6667 7.22784 17L7.47985 19.5833C7.47985 19.8333 7.73187 20 7.98388 20H12.1001C12.3521 20 12.6042 19.8333 12.6042 19.5833L12.8562 17C13.5282 16.75 14.1162 16.4167 14.7043 15.9167L17.1404 17C17.3924 17.0833 17.6445 17 17.8125 16.8333L19.9126 13.25C20.0806 13 19.9966 12.75 19.7446 12.5833L17.3924 11.0833ZM9.916 14.1667C7.56386 14.1667 5.71574 12.3333 5.71574 10C5.71574 7.66667 7.56386 5.83333 9.916 5.83333C12.2681 5.83333 14.1162 7.66667 14.1162 10C14.1162 12.3333 12.2681 14.1667 9.916 14.1667Z" fill="#009BDB"/>
</svg>
