<svg width="63" height="63" viewBox="0 0 63 63" fill="none" xmlns="http://www.w3.org/2000/svg">
<path fill-rule="evenodd" clip-rule="evenodd" d="M63 31.5C63 48.8968 48.8968 63 31.5 63C14.103 63 0 48.8968 0 31.5C0 14.103 14.103 0 31.5 0C48.8968 0 63 14.103 63 31.5ZM31.5 19.2938V25.2L39.375 17.325L31.5 9.45V15.3563C22.7981 15.3563 15.75 22.4044 15.75 31.1063C15.75 34.197 16.6556 37.0714 18.1913 39.4931L21.0656 36.6188C20.1797 34.9845 19.6875 33.0945 19.6875 31.1063C19.6875 24.5897 24.9834 19.2938 31.5 19.2938ZM44.8088 22.7194L41.9344 25.5938C42.8006 27.2475 43.3125 29.118 43.3125 31.1063C43.3125 37.623 38.0167 42.9188 31.5 42.9188V37.0125L23.625 44.8875L31.5 52.7625V46.8563C40.2019 46.8563 47.25 39.8081 47.25 31.1063C47.25 28.0155 46.3444 25.141 44.8088 22.7194Z" fill="white"/>
</svg>
