<svg width="246" height="24" viewBox="0 0 246 24" fill="none" xmlns="http://www.w3.org/2000/svg">
<path d="M0.68 2.016H6.032C7.584 2.016 8.808 2.392 9.704 3.144C10.616 3.88 11.072 4.888 11.072 6.168C11.072 7.624 10.44 8.744 9.176 9.528C10.856 10.2 11.696 11.384 11.696 13.08C11.696 14.04 11.456 14.896 10.976 15.648C10.496 16.384 9.824 16.96 8.96 17.376C8.112 17.792 7.152 18 6.08 18H0.68V2.016ZM5.216 8.52C6.016 8.52 6.632 8.336 7.064 7.968C7.512 7.6 7.736 7.088 7.736 6.432C7.736 5.248 7 4.656 5.528 4.656H4.016V8.52H5.216ZM5.552 15.336C6.416 15.336 7.088 15.136 7.568 14.736C8.064 14.336 8.312 13.8 8.312 13.128C8.312 12.52 8.104 12.048 7.688 11.712C7.272 11.376 6.672 11.208 5.888 11.208H4.016V15.336H5.552ZM22.3361 18.36C20.5601 18.36 19.0241 18.048 17.7281 17.424C16.4481 16.784 15.4641 15.872 14.7761 14.688C14.0881 13.504 13.7441 12.096 13.7441 10.464C13.7441 8.752 14.1041 7.24 14.8241 5.928C15.5601 4.616 16.5841 3.6 17.8961 2.88C19.2241 2.16 20.7521 1.8 22.4801 1.8C23.4721 1.8 24.4081 1.912 25.2881 2.136C26.1841 2.36 26.9761 2.68 27.6641 3.096L26.8241 5.976C26.2001 5.592 25.5041 5.296 24.7361 5.088C23.9681 4.864 23.2161 4.752 22.4801 4.752C21.4241 4.752 20.4881 4.984 19.6721 5.448C18.8721 5.896 18.2481 6.536 17.8001 7.368C17.3681 8.184 17.1521 9.136 17.1521 10.224C17.1521 11.824 17.6321 13.088 18.5921 14.016C19.5681 14.928 20.8961 15.384 22.5761 15.384C23.2481 15.384 23.8721 15.336 24.4481 15.24V11.928H22.4321V9.12H27.6401V17.424C25.9921 18.048 24.2241 18.36 22.3361 18.36ZM30.8675 2.016C31.3315 2 32.2115 1.992 33.5075 1.992C34.8195 1.992 35.7075 2 36.1715 2.016C37.8195 2.048 39.1155 2.488 40.0595 3.336C41.0035 4.184 41.4755 5.36 41.4755 6.864C41.4755 7.936 41.2355 8.888 40.7555 9.72C40.2755 10.536 39.5955 11.168 38.7155 11.616C37.8515 12.064 36.8675 12.288 35.7635 12.288H34.2035V18H30.8675V2.016ZM35.6195 9.456C36.4035 9.456 37.0115 9.232 37.4435 8.784C37.8915 8.336 38.1155 7.728 38.1155 6.96C38.1155 5.552 37.3395 4.848 35.7875 4.848H34.2035V9.456H35.6195ZM50.4005 5.04H46.0325V2.016H58.2245V5.04H53.9045V18H50.4005V5.04ZM59.507 5.64H62.891V7.656H63.083C63.547 6.84 64.003 6.24 64.451 5.856C64.915 5.472 65.491 5.28 66.179 5.28C66.467 5.28 66.707 5.312 66.899 5.376L66.539 9.024C66.123 8.912 65.787 8.856 65.531 8.856C65.163 8.856 64.835 8.928 64.547 9.072C64.275 9.216 64.027 9.408 63.803 9.648C63.595 9.888 63.291 10.256 62.891 10.752V18H59.507V5.64ZM72.1751 18.36C70.8951 18.36 69.8791 17.816 69.1271 16.728C68.3751 15.64 67.9991 14.16 67.9991 12.288C67.9991 10.016 68.5751 8.288 69.7271 7.104C70.8791 5.904 72.5351 5.304 74.6951 5.304C75.9111 5.304 77.3351 5.496 78.9671 5.88V18H75.7511L75.8231 16.032H75.7271C75.3111 16.784 74.7991 17.36 74.1911 17.76C73.5991 18.16 72.9271 18.36 72.1751 18.36ZM72.8951 15.408C73.3911 15.408 73.8791 15.144 74.3591 14.616C74.8391 14.088 75.2871 13.384 75.7031 12.504V8.472C75.1911 8.328 74.6791 8.256 74.1671 8.256C73.2071 8.256 72.4791 8.584 71.9831 9.24C71.5031 9.896 71.2631 10.864 71.2631 12.144C71.2631 13.152 71.4071 13.952 71.6951 14.544C71.9831 15.12 72.3831 15.408 72.8951 15.408ZM81.5024 15.096H83.6864V8.544H81.5024V5.64H83.6864V4.128C83.6864 2.928 84.0704 1.968 84.8384 1.248C85.6064 0.512 86.6304 0.144 87.9104 0.144C88.8064 0.144 89.7984 0.368 90.8864 0.816L89.7104 3.48C89.1664 3.208 88.6784 3.072 88.2464 3.072C87.8784 3.072 87.5904 3.176 87.3824 3.384C87.1744 3.592 87.0704 3.896 87.0704 4.296V5.64H89.9504V8.544H87.0704V15.096H89.9504V18H81.5024V15.096ZM92.1196 15.096H94.3036V8.544H92.1196V5.64H94.3036V4.128C94.3036 2.928 94.6876 1.968 95.4556 1.248C96.2236 0.512 97.2476 0.144 98.5276 0.144C99.4236 0.144 100.416 0.368 101.504 0.816L100.328 3.48C99.7836 3.208 99.2956 3.072 98.8636 3.072C98.4956 3.072 98.2076 3.176 97.9996 3.384C97.7916 3.592 97.6876 3.896 97.6876 4.296V5.64H108.512V15.096H110.576V18H102.824V15.096H105.128V8.544H97.6876V15.096H100.568V18H92.1196V15.096ZM104.696 0.48H108.56V3.6H104.696V0.48ZM118.328 18.36C116.28 18.36 114.688 17.816 113.552 16.728C112.432 15.64 111.872 14.104 111.872 12.12C111.872 10.776 112.136 9.592 112.664 8.568C113.192 7.528 113.936 6.728 114.896 6.168C115.856 5.592 116.968 5.304 118.232 5.304C118.824 5.304 119.44 5.376 120.08 5.52C120.736 5.648 121.24 5.8 121.592 5.976L120.944 8.832C120.576 8.656 120.168 8.52 119.72 8.424C119.288 8.312 118.88 8.256 118.496 8.256C117.504 8.256 116.704 8.592 116.096 9.264C115.504 9.936 115.208 10.824 115.208 11.928C115.208 13.048 115.512 13.912 116.12 14.52C116.744 15.128 117.624 15.432 118.76 15.432C119.512 15.432 120.32 15.288 121.184 15L121.688 17.736C120.648 18.152 119.528 18.36 118.328 18.36ZM136.248 18.312C134.68 18.312 133.296 17.968 132.096 17.28C130.896 16.592 129.96 15.624 129.288 14.376C128.632 13.128 128.304 11.696 128.304 10.08C128.304 8.448 128.632 7.008 129.288 5.76C129.944 4.512 130.872 3.544 132.072 2.856C133.272 2.168 134.664 1.824 136.248 1.824C137.816 1.824 139.2 2.168 140.4 2.856C141.6 3.528 142.528 4.48 143.184 5.712C143.84 6.944 144.168 8.368 144.168 9.984C144.168 11.632 143.84 13.088 143.184 14.352C142.528 15.6 141.6 16.576 140.4 17.28C139.2 17.968 137.816 18.312 136.248 18.312ZM136.248 15.264C137.56 15.264 138.608 14.792 139.392 13.848C140.192 12.904 140.592 11.648 140.592 10.08C140.592 9.056 140.408 8.152 140.04 7.368C139.688 6.568 139.176 5.96 138.504 5.544C137.848 5.112 137.096 4.896 136.248 4.896C135.4 4.896 134.64 5.112 133.968 5.544C133.312 5.96 132.8 6.568 132.432 7.368C132.08 8.152 131.904 9.056 131.904 10.08C131.904 11.104 132.08 12.008 132.432 12.792C132.8 13.576 133.312 14.184 133.968 14.616C134.624 15.048 135.384 15.264 136.248 15.264ZM146.693 5.64H149.981L149.909 7.248H150.005C150.421 6.608 150.925 6.12 151.517 5.784C152.125 5.448 152.813 5.28 153.581 5.28C154.973 5.28 156.061 5.816 156.845 6.888C157.645 7.944 158.045 9.424 158.045 11.328C158.045 13.584 157.453 15.32 156.269 16.536C155.101 17.736 153.429 18.336 151.253 18.336C150.981 18.336 150.573 18.32 150.029 18.288V23.232H146.693V5.64ZM151.589 15.384C152.597 15.384 153.357 15.056 153.869 14.4C154.397 13.744 154.661 12.784 154.661 11.52C154.661 10.496 154.493 9.696 154.157 9.12C153.837 8.528 153.389 8.232 152.813 8.232C152.301 8.232 151.805 8.456 151.325 8.904C150.845 9.336 150.413 9.96 150.029 10.776V15.168C150.573 15.312 151.093 15.384 151.589 15.384ZM165.08 18.36C163.928 18.36 163.032 18.072 162.392 17.496C161.768 16.904 161.456 16.072 161.456 15V8.544H159.536V5.64H161.456V3C162.592 2.808 163.712 2.664 164.816 2.568V5.64H167.936V8.544H164.816V14.376C164.816 14.712 164.912 14.968 165.104 15.144C165.312 15.32 165.6 15.408 165.968 15.408C166.416 15.408 166.928 15.304 167.504 15.096L168.248 17.64C167.224 18.12 166.168 18.36 165.08 18.36ZM172.086 0.48H175.95V3.6H172.086V0.48ZM170.214 15.096H172.518V8.544H170.214V5.64H175.902V15.096H177.966V18H170.214V15.096ZM180.208 5.64H183.52V7.56C184.496 6.056 185.816 5.304 187.48 5.304C188.424 5.304 189.224 5.528 189.88 5.976C190.552 6.408 191.04 7.032 191.344 7.848C191.904 6.968 192.528 6.328 193.216 5.928C193.92 5.512 194.72 5.304 195.616 5.304C196.944 5.304 197.976 5.704 198.712 6.504C199.464 7.288 199.84 8.384 199.84 9.792V18H196.456V10.32C196.456 9.68 196.296 9.184 195.976 8.832C195.672 8.464 195.256 8.28 194.728 8.28C194.072 8.28 193.464 8.552 192.904 9.096C192.344 9.64 191.928 10.336 191.656 11.184V18H188.272V10.32C188.272 9.696 188.112 9.2 187.792 8.832C187.472 8.464 187.048 8.28 186.52 8.28C185.928 8.28 185.368 8.504 184.84 8.952C184.328 9.384 183.912 10 183.592 10.8V18H180.208V5.64ZM204.289 0.48H208.153V3.6H204.289V0.48ZM202.417 15.096H204.721V8.544H202.417V5.64H208.105V15.096H210.169V18H202.417V15.096ZM211.881 15.768L217.809 8.544H212.289V5.64H221.937V7.848L216.033 15.096H221.937V17.976H211.881V15.768ZM229.892 18.36C227.892 18.36 226.316 17.784 225.164 16.632C224.028 15.48 223.46 13.88 223.46 11.832C223.46 10.504 223.708 9.352 224.204 8.376C224.7 7.384 225.396 6.624 226.292 6.096C227.204 5.568 228.268 5.304 229.484 5.304C231.276 5.304 232.652 5.88 233.612 7.032C234.572 8.184 235.052 9.848 235.052 12.024C235.052 12.392 235.044 12.664 235.028 12.84H226.868C227.028 13.688 227.396 14.336 227.972 14.784C228.548 15.216 229.324 15.432 230.3 15.432C230.892 15.432 231.508 15.36 232.148 15.216C232.788 15.056 233.348 14.848 233.828 14.592L234.38 17.304C233.74 17.64 233.028 17.896 232.244 18.072C231.476 18.264 230.692 18.36 229.892 18.36ZM231.812 10.296C231.764 9.608 231.524 9.064 231.092 8.664C230.66 8.248 230.084 8.04 229.364 8.04C228.676 8.04 228.108 8.24 227.66 8.64C227.228 9.04 226.956 9.592 226.844 10.296H231.812ZM237.655 5.64H241.039V7.656H241.231C241.695 6.84 242.151 6.24 242.599 5.856C243.063 5.472 243.639 5.28 244.327 5.28C244.615 5.28 244.855 5.312 245.047 5.376L244.687 9.024C244.271 8.912 243.935 8.856 243.679 8.856C243.311 8.856 242.983 8.928 242.695 9.072C242.423 9.216 242.175 9.408 241.951 9.648C241.743 9.888 241.439 10.256 241.039 10.752V18H237.655V5.64Z" fill="#fff"/>
</svg>
