<svg width="19" height="18" viewBox="0 0 19 18" fill="none" xmlns="http://www.w3.org/2000/svg">
<path fill-rule="evenodd" clip-rule="evenodd" d="M16.8341 6.10047C15.9502 3.85625 14.1614 2.06749 11.9172 1.18373C11.6571 1.4794 11.4462 1.81954 11.2975 2.19125C13.3987 2.95208 15.0657 4.61907 15.8266 6.7201C16.1983 6.57145 16.5384 6.36062 16.8341 6.10047ZM8.99156 1.74688C8.90388 1.74387 8.81574 1.74234 8.72725 1.74234C4.55839 1.74234 1.17887 5.12187 1.17887 9.29073C1.17887 13.4596 4.55839 16.8391 8.72725 16.8391C12.8962 16.8391 16.2756 13.4596 16.2756 9.29073C16.2756 9.20212 16.2741 9.11398 16.2711 9.02607C16.669 8.90146 17.0485 8.73516 17.4044 8.5324C17.4259 8.78231 17.4369 9.03524 17.4369 9.29073C17.4369 14.1009 13.5374 18.0004 8.72725 18.0004C3.91703 18.0004 0.0175781 14.1009 0.0175781 9.29073C0.0175781 4.4805 3.91703 0.581055 8.72725 0.581055C8.98262 0.581055 9.23543 0.59204 9.48522 0.613582C9.28246 0.969517 9.11617 1.34899 8.99156 1.74688Z" fill="#009BDB"/>
<path d="M14.5334 6.96774C16.4575 6.96774 18.0173 5.40796 18.0173 3.48387C18.0173 1.55978 16.4575 0 14.5334 0C12.6093 0 11.0496 1.55978 11.0496 3.48387C11.0496 5.40796 12.6093 6.96774 14.5334 6.96774Z" fill="#009BDB"/>
</svg>
