<svg width="30" height="25" viewBox="0 0 30 25" fill="none" xmlns="http://www.w3.org/2000/svg">
<g id="Mask group">
<mask id="mask0_614_735" style="mask-type:alpha" maskUnits="userSpaceOnUse" x="0" y="0" width="30" height="25">
<g id="icons Q2">
<g id="Group">
<path id="Vector" d="M26.8423 10.6045V21.9732H21.4737V10.6045H26.8423ZM28.1844 8.07812H20.1316C19.7756 8.07812 19.4342 8.21121 19.1825 8.44811C18.9308 8.685 18.7894 9.0063 18.7894 9.34132V23.2364C18.7894 23.5714 18.9308 23.8927 19.1825 24.1296C19.4342 24.3665 19.7756 24.4996 20.1316 24.4996H28.1844C28.5404 24.4996 28.8817 24.3665 29.1334 24.1296C29.3851 23.8927 29.5265 23.5714 29.5265 23.2364V9.34132C29.5265 9.0063 29.3851 8.685 29.1334 8.44811C28.8817 8.21121 28.5404 8.07812 28.1844 8.07812Z" fill="black"/>
<path id="Vector_2" d="M24.1586 0.5H3.35545C2.99949 0.5 2.65811 0.633086 2.40641 0.86998C2.15471 1.10687 2.01331 1.42817 2.01331 1.76319V15.6583C2.01331 15.9933 2.15471 16.3146 2.40641 16.5515C2.65811 16.7884 2.99949 16.9215 3.35545 16.9215H16.1058V14.3951H4.69759V3.02638H22.8165V5.55276H25.5008V1.76319C25.5008 1.42817 25.3594 1.10687 25.1077 0.86998C24.8559 0.633086 24.5146 0.5 24.1586 0.5Z" fill="black"/>
<path id="Vector_3" d="M16.1057 19.4482V21.9746H1.34214C0.986182 21.9746 0.644804 21.8415 0.393104 21.6046C0.141404 21.3677 0 21.0465 0 20.7114C0 20.3764 0.141404 20.0551 0.393104 19.8182C0.644804 19.5813 0.986182 19.4482 1.34214 19.4482H16.1057Z" fill="black"/>
</g>
</g>
</mask>
<g mask="url(#mask0_614_735)">
<rect id="Rectangle 1234" x="18.4545" y="7.44727" width="12.9181" height="17.3689" fill="#009BDB"/>
<path id="Vector 11" d="M28.6043 -1.23675L-3.3617e-05 -2.97363L-3.69092 25.685H17.5317V6.57924H22.1453H25.8362L27.6816 5.7108L28.6043 -1.23675Z" fill="black" stroke="black" stroke-width="0.3"/>
</g>
</g>
</svg>
